<?xml version="1.0" encoding="UTF-8"?>
<svg width="132px" height="38px" viewBox="0 0 132 38" version="1.1" xmlns="http://www.w3.org/2000/svg" xmlns:xlink="http://www.w3.org/1999/xlink">
    <!-- Generator: Sketch 47.1 (45422) - http://www.bohemiancoding.com/sketch -->
    <title>Logo</title>
    <desc>Created with Sketch.</desc>
    <defs></defs>
    <g id="Design" stroke="none" stroke-width="1" fill="none" fill-rule="evenodd">
        <g id="Filter" transform="translate(-20.000000, -20.000000)">
            <g id="Left-menu">
                <g id="Logo" transform="translate(20.000000, 20.000000)">
                    <g>
                        <path d="M4.07622546,30.1158231 L4.07622546,37.7597203 L0,37.7597203 L0,16.0444444 L7.13718287,16.0444444 C8.6020048,16.0444444 9.86981441,16.2146408 10.9406498,16.5550388 C12.0114851,16.8954367 12.8954161,17.3709854 13.5924693,17.9816993 C14.2895225,18.5924132 14.804728,19.3232566 15.1381013,20.1742514 C15.4714745,21.0252462 15.6381586,21.9563206 15.6381586,22.9675027 C15.6381586,24.0187315 15.4613724,24.9823435 15.1077947,25.8583675 C14.754217,26.7343916 14.2238584,27.4877609 13.516703,28.1184983 C12.8095476,28.7492356 11.9256166,29.2398017 10.8648835,29.5902113 C9.80415036,29.9406209 8.56159592,30.1158231 7.13718287,30.1158231 L4.07622546,30.1158231 Z M4.07622546,26.9621523 L7.13718287,26.9621523 C7.88474717,26.9621523 8.53633059,26.8695454 9.0919527,26.6843289 C9.64757481,26.4991124 10.1072189,26.2338063 10.4708989,25.8884025 C10.8345788,25.5429987 11.1073346,25.1225135 11.2891746,24.6269342 C11.4710146,24.1313549 11.5619332,23.5782166 11.5619332,22.9675027 C11.5619332,22.3868239 11.4710146,21.8612173 11.2891746,21.3906673 C11.1073346,20.9201172 10.8345788,20.5196551 10.4708989,20.1892689 C10.1072189,19.8588827 9.64757481,19.606091 9.0919527,19.4308862 C8.53633059,19.2556813 7.88474717,19.1680803 7.13718287,19.1680803 L4.07622546,19.1680803 L4.07622546,26.9621523 Z M27.624383,34.5009272 C28.4123561,34.5009272 29.1169754,34.370777 29.738262,34.1104727 C30.3595485,33.8501684 30.8848561,33.4847467 31.3142004,33.0141967 C31.7435448,32.5436466 32.071862,31.9729881 32.299162,31.302204 C32.5264619,30.6314199 32.6401102,29.8805534 32.6401102,29.049582 L32.6401102,16.0444444 L36.7163357,16.0444444 L36.7163357,29.049582 C36.7163357,30.3410917 36.5067177,31.5349694 36.0874756,32.6312509 C35.6682335,33.7275325 35.0646349,34.6736242 34.2766617,35.4695546 C33.4886885,36.2654851 32.534043,36.8862013 31.4126966,37.3317221 C30.2913502,37.7772429 29.0285916,38 27.624383,38 C26.2201744,38 24.9574158,37.7772429 23.8360693,37.3317221 C22.7147229,36.8862013 21.7626029,36.2654851 20.9796809,35.4695546 C20.1967588,34.6736242 19.5956857,33.7275325 19.1764436,32.6312509 C18.7572014,31.5349694 18.5475835,30.3410917 18.5475835,29.049582 L18.5475835,16.0444444 L22.623809,16.0444444 L22.623809,29.0345645 C22.623809,29.8655359 22.7374572,30.6164024 22.9647572,31.2871865 C23.1920572,31.9579706 23.5178489,32.531132 23.9421421,33.0066879 C24.3664354,33.4822439 24.8892174,33.8501684 25.510504,34.1104727 C26.1317905,34.370777 26.8364098,34.5009272 27.624383,34.5009272 Z M56.3094937,16.0444444 L56.3094937,19.3633075 L49.717828,19.3633075 L49.717828,37.7597203 L45.6416026,37.7597203 L45.6416026,19.3633075 L39.0196304,19.3633075 L39.0196304,16.0444444 L56.3094937,16.0444444 Z M77.3876708,37.7597203 L73.2811388,37.7597203 L73.2811388,28.2686731 L63.0072322,28.2686731 L63.0072322,37.7597203 L58.9007003,37.7597203 L58.9007003,16.0444444 L63.0072322,16.0444444 L63.0072322,25.3853169 L73.2811388,25.3853169 L73.2811388,16.0444444 L77.3876708,16.0444444 L77.3876708,37.7597203 Z M84.3278613,36.4531996 L94.4956951,36.4531996 L94.4956951,37.7597203 L82.7822294,37.7597203 L82.7822294,16.5099863 L84.3278613,16.5099863 L84.3278613,36.4531996 Z M114.422225,37.7597203 L113.225118,37.7597203 C113.083687,37.7597203 112.967513,37.722177 112.876593,37.6470892 C112.785673,37.5720014 112.714958,37.4743888 112.664447,37.3542484 L110.133854,31.1820641 L99.6023419,31.1820641 L97.0869016,37.3542484 C97.0464927,37.4643771 96.9757783,37.5594869 96.8747561,37.6395805 C96.7737339,37.7196741 96.652509,37.7597203 96.5110779,37.7597203 L95.3291241,37.7597203 L104.102858,16.5099863 L105.64849,16.5099863 L114.422225,37.7597203 Z M100.072093,30.0407357 L109.679256,30.0407357 L105.299966,19.3032376 C105.22925,19.1330386 105.158536,18.9403162 105.08782,18.7250646 C105.017104,18.509813 104.94639,18.2820501 104.875674,18.0417693 C104.804959,18.2820501 104.734244,18.509813 104.663529,18.7250646 C104.592813,18.9403162 104.522099,19.1380444 104.451383,19.3182551 L100.072093,30.0407357 Z M117.816554,37.7597203 L117.816554,16.5099863 L123.983928,16.5099863 C125.206297,16.5099863 126.264489,16.630125 127.158535,16.8704058 C128.052582,17.1106867 128.792558,17.463594 129.378487,17.9291382 C129.964416,18.3946824 130.40133,18.962838 130.689243,19.6336221 C130.977157,20.3044063 131.121111,21.0652843 131.121111,21.9162791 C131.121111,22.4769345 131.022616,23.0175583 130.825623,23.5381669 C130.628629,24.0587755 130.343246,24.53933 129.969464,24.979845 C129.595682,25.4203599 129.138563,25.8033018 128.598094,26.1286822 C128.057626,26.4540625 127.438874,26.7018485 126.741821,26.8720474 C128.428891,27.12234 129.727007,27.6779812 130.636207,28.5389877 C131.545407,29.3999942 132,30.5363055 132,31.9479556 C132,32.8490089 131.838367,33.6599447 131.515096,34.3807874 C131.191825,35.10163 130.722079,35.7123347 130.105843,36.2129199 C129.489608,36.7135051 128.731953,37.096447 127.832855,37.3617571 C126.933757,37.6270672 125.913448,37.7597203 124.771898,37.7597203 L117.816554,37.7597203 Z M119.362186,27.577869 L119.362186,36.528287 L124.741591,36.528287 C126.630706,36.528287 128.055098,36.125322 129.014809,35.3193798 C129.97452,34.5134377 130.454368,33.3796293 130.454368,31.9179207 C130.454368,31.2471365 130.325567,30.6439405 130.06796,30.1083143 C129.810353,29.5726882 129.439102,29.1171625 128.954196,28.7417237 C128.469289,28.3662848 127.873267,28.0784526 127.166112,27.8782186 C126.458956,27.6779845 125.655842,27.577869 124.756744,27.577869 L119.362186,27.577869 Z M119.362186,26.451558 L124.014235,26.451558 C125.004252,26.451558 125.850301,26.3264136 126.552405,26.076121 C127.254509,25.8258284 127.830327,25.4954472 128.279876,25.0849673 C128.729425,24.6744875 129.060268,24.2089503 129.272414,23.6883417 C129.484561,23.1677331 129.590633,22.632115 129.590633,22.0814713 C129.590633,20.6497978 129.133514,19.5660472 128.219263,18.830187 C127.305012,18.0943268 125.893248,17.7264022 123.983928,17.7264022 L119.362186,17.7264022 L119.362186,26.451558 Z" id="puthlab" fill="#0077FF"></path>
                        <ellipse id="Oval" fill="#00D3FF" cx="93.9230769" cy="10.9777778" rx="8.46153846" ry="8.44444444"></ellipse>
                        <ellipse id="Oval-Copy" fill="#F5A623" style="mix-blend-mode: darken;" cx="100.692308" cy="6.75555556" rx="6.76923077" ry="6.75555556"></ellipse>
                    </g>
                </g>
            </g>
        </g>
    </g>
</svg>